<?xml version="1.0" encoding="UTF-8"?>
<svg xmlns="http://www.w3.org/2000/svg" xmlns:xlink="http://www.w3.org/1999/xlink" width="388px" height="131px" viewBox="0 0 389 131" version="1.1">
<defs>
<clipPath id="clip1">
  <path d="M 61 67 L 102 67 L 102 119 L 61 119 Z M 61 67 "/>
</clipPath>
<clipPath id="clip2">
  <path d="M 93.253906 8.960938 L 48.46875 34.832031 C 46.792969 35.800781 45.761719 37.585938 45.761719 39.519531 L 45.761719 91.304688 C 45.761719 93.238281 46.792969 95.023438 48.464844 95.992188 L 93.25 121.886719 C 94.925781 122.851562 96.988281 122.851562 98.664062 121.886719 L 143.460938 95.992188 C 145.132812 95.023438 146.164062 93.238281 146.164062 91.304688 L 146.164062 39.523438 C 146.164062 37.585938 145.132812 35.800781 143.460938 34.832031 L 98.664062 8.960938 C 97.824219 8.476562 96.890625 8.238281 95.957031 8.238281 C 95.023438 8.238281 94.089844 8.476562 93.253906 8.960938 "/>
</clipPath>
<clipPath id="clip3">
  <path d="M 104 66 L 141 66 L 141 120 L 104 120 Z M 104 66 "/>
</clipPath>
<clipPath id="clip4">
  <path d="M 93.253906 8.960938 L 48.46875 34.832031 C 46.792969 35.800781 45.761719 37.585938 45.761719 39.519531 L 45.761719 91.304688 C 45.761719 93.238281 46.792969 95.023438 48.464844 95.992188 L 93.25 121.886719 C 94.925781 122.851562 96.988281 122.851562 98.664062 121.886719 L 143.460938 95.992188 C 145.132812 95.023438 146.164062 93.238281 146.164062 91.304688 L 146.164062 39.523438 C 146.164062 37.585938 145.132812 35.800781 143.460938 34.832031 L 98.664062 8.960938 C 97.824219 8.476562 96.890625 8.238281 95.957031 8.238281 C 95.023438 8.238281 94.089844 8.476562 93.253906 8.960938 "/>
</clipPath>
</defs>
<g id="surface1">
<path style=" stroke:none;fill-rule:nonzero;fill:rgb(13.333333%,38.039216%,65.882353%);fill-opacity:1;" d="M 93.253906 8.714844 L 48.46875 34.582031 C 46.792969 35.550781 45.761719 37.339844 45.761719 39.273438 L 45.761719 91.054688 C 45.761719 92.988281 46.792969 94.777344 48.464844 95.746094 L 93.25 121.636719 C 94.925781 122.605469 96.988281 122.605469 98.664062 121.636719 L 143.460938 95.746094 C 145.132812 94.777344 146.164062 92.988281 146.164062 91.054688 L 146.164062 39.273438 C 146.164062 37.339844 145.132812 35.550781 143.460938 34.582031 L 98.664062 8.714844 C 97.824219 8.230469 96.890625 7.988281 95.957031 7.988281 C 95.023438 7.988281 94.089844 8.230469 93.253906 8.714844 "/>
<g clip-path="url(#clip1)" clip-rule="nonzero">
<g clip-path="url(#clip2)" clip-rule="nonzero">
<path style=" stroke:none;fill-rule:nonzero;fill:rgb(100%,100%,100%);fill-opacity:1;" d="M 76.023438 118.617188 L 86.558594 118.617188 L 86.558594 76.679688 L 101.152344 76.679688 L 101.152344 67.421875 L 61.429688 67.421875 L 61.429688 76.679688 L 76.023438 76.679688 Z M 76.023438 118.617188 "/>
</g>
</g>
<g clip-path="url(#clip3)" clip-rule="nonzero">
<g clip-path="url(#clip4)" clip-rule="nonzero">
<path style=" stroke:none;fill-rule:nonzero;fill:rgb(100%,100%,100%);fill-opacity:1;" d="M 123.191406 119.296875 C 133.199219 119.296875 140.644531 114.101562 140.644531 104.613281 C 140.644531 95.804688 135.605469 91.890625 126.652344 88.050781 L 124.019531 86.921875 C 119.503906 84.964844 117.550781 83.683594 117.550781 80.519531 C 117.550781 77.960938 119.503906 76.003906 122.589844 76.003906 C 125.597656 76.003906 127.554688 77.285156 129.359375 80.519531 L 137.5625 75.25 C 134.101562 69.152344 129.285156 66.816406 122.589844 66.816406 C 113.183594 66.816406 107.167969 72.839844 107.167969 80.746094 C 107.167969 89.332031 112.207031 93.394531 119.804688 96.632812 L 122.4375 97.761719 C 127.253906 99.871094 130.113281 101.152344 130.113281 104.765625 C 130.113281 107.777344 127.328125 109.960938 122.964844 109.960938 C 117.773438 109.960938 114.839844 107.25 112.582031 103.558594 L 104.007812 108.53125 C 107.089844 114.628906 113.410156 119.296875 123.191406 119.296875 Z M 123.191406 119.296875 "/>
</g>
</g>
<path style=" stroke:none;fill-rule:evenodd;fill:rgb(20%,20%,20%);fill-opacity:1;" d="M 201.988281 83.566406 C 201.988281 82.753906 201.5625 82.011719 200.863281 81.609375 L 182.214844 70.867188 C 181.902344 70.683594 181.546875 70.585938 181.191406 70.570312 L 180.996094 70.570312 C 180.640625 70.585938 180.289062 70.683594 179.96875 70.867188 L 161.320312 81.609375 C 160.625 82.011719 160.195312 82.753906 160.195312 83.566406 L 160.234375 112.484375 C 160.234375 112.886719 160.441406 113.261719 160.796875 113.457031 C 161.144531 113.664062 161.570312 113.664062 161.914062 113.457031 L 172.996094 107.105469 C 173.699219 106.691406 174.125 105.957031 174.125 105.152344 L 174.125 91.640625 C 174.125 90.835938 174.550781 90.089844 175.25 89.691406 L 179.96875 86.96875 C 180.320312 86.765625 180.703125 86.667969 181.097656 86.667969 C 181.480469 86.667969 181.875 86.765625 182.214844 86.96875 L 186.933594 89.691406 C 187.632812 90.089844 188.058594 90.835938 188.058594 91.640625 L 188.058594 105.152344 C 188.058594 105.957031 188.492188 106.695312 189.1875 107.105469 L 200.265625 113.457031 C 200.613281 113.664062 201.050781 113.664062 201.394531 113.457031 C 201.738281 113.261719 201.953125 112.886719 201.953125 112.484375 Z M 201.988281 83.566406 "/>
<path style=" stroke:none;fill-rule:evenodd;fill:rgb(20%,20%,20%);fill-opacity:1;" d="M 289.980469 98.625 C 289.980469 98.824219 289.871094 99.011719 289.699219 99.109375 L 283.292969 102.804688 C 283.121094 102.90625 282.90625 102.90625 282.730469 102.804688 L 276.328125 99.109375 C 276.152344 99.011719 276.042969 98.824219 276.042969 98.625 L 276.042969 91.222656 C 276.042969 91.023438 276.152344 90.835938 276.324219 90.734375 L 282.730469 87.03125 C 282.90625 86.929688 283.121094 86.929688 283.292969 87.03125 L 289.699219 90.734375 C 289.871094 90.835938 289.980469 91.023438 289.980469 91.222656 Z M 291.710938 43.8125 C 291.363281 43.621094 290.933594 43.625 290.589844 43.828125 C 290.246094 44.027344 290.035156 44.398438 290.035156 44.796875 L 290.035156 73.4375 C 290.035156 73.71875 289.882812 73.976562 289.640625 74.121094 C 289.398438 74.261719 289.097656 74.261719 288.851562 74.121094 L 284.183594 71.425781 C 283.484375 71.023438 282.628906 71.027344 281.933594 71.425781 L 263.277344 82.199219 C 262.582031 82.605469 262.152344 83.347656 262.152344 84.152344 L 262.152344 105.703125 C 262.152344 106.511719 262.582031 107.253906 263.277344 107.65625 L 281.929688 118.4375 C 282.628906 118.84375 283.488281 118.84375 284.183594 118.4375 L 302.839844 107.65625 C 303.535156 107.253906 303.964844 106.511719 303.964844 105.703125 L 303.964844 51.980469 C 303.964844 51.164062 303.523438 50.410156 302.8125 50.011719 Z M 291.710938 43.8125 "/>
<path style=" stroke:none;fill-rule:evenodd;fill:rgb(20%,20%,20%);fill-opacity:1;" d="M 353.824219 91.027344 C 354.519531 90.625 354.945312 89.882812 354.945312 89.078125 L 354.945312 83.855469 C 354.945312 83.054688 354.519531 82.3125 353.824219 81.90625 L 335.289062 71.136719 C 334.59375 70.734375 333.730469 70.730469 333.03125 71.136719 L 314.386719 81.910156 C 313.6875 82.3125 313.257812 83.054688 313.257812 83.859375 L 313.257812 105.40625 C 313.257812 106.21875 313.695312 106.964844 314.398438 107.367188 L 332.929688 117.933594 C 333.613281 118.324219 334.449219 118.328125 335.136719 117.945312 L 346.347656 111.710938 C 346.703125 111.511719 346.921875 111.140625 346.925781 110.734375 C 346.925781 110.328125 346.710938 109.949219 346.359375 109.75 L 327.59375 98.96875 C 327.242188 98.769531 327.027344 98.394531 327.027344 97.992188 L 327.027344 91.238281 C 327.027344 90.835938 327.242188 90.464844 327.59375 90.261719 L 333.433594 86.890625 C 333.78125 86.691406 334.210938 86.691406 334.558594 86.890625 L 340.398438 90.261719 C 340.75 90.464844 340.964844 90.835938 340.964844 91.238281 L 340.964844 96.550781 C 340.964844 96.953125 341.179688 97.328125 341.527344 97.527344 C 341.878906 97.730469 342.308594 97.730469 342.65625 97.527344 Z M 353.824219 91.027344 "/>
<path style=" stroke:none;fill-rule:evenodd;fill:rgb(13.333333%,38.039216%,65.882353%);fill-opacity:1;" d="M 333.886719 90.019531 C 334.019531 89.941406 334.183594 89.941406 334.320312 90.019531 L 337.898438 92.085938 C 338.03125 92.164062 338.113281 92.304688 338.113281 92.460938 L 338.113281 96.597656 C 338.113281 96.75 338.03125 96.894531 337.898438 96.972656 L 334.320312 99.039062 C 334.183594 99.117188 334.019531 99.117188 333.886719 99.039062 L 330.308594 96.972656 C 330.175781 96.894531 330.09375 96.75 330.09375 96.597656 L 330.09375 92.460938 C 330.09375 92.304688 330.175781 92.164062 330.308594 92.085938 Z M 333.886719 90.019531 "/>
<path style=" stroke:none;fill-rule:nonzero;fill:rgb(13.333333%,38.039216%,65.882353%);fill-opacity:1;" d="M 230.953125 71.246094 L 212.453125 81.933594 C 211.761719 82.332031 211.335938 83.070312 211.335938 83.867188 L 211.335938 105.253906 C 211.335938 106.054688 211.761719 106.792969 212.453125 107.191406 L 230.949219 117.886719 C 231.640625 118.285156 232.496094 118.285156 233.1875 117.886719 L 251.6875 107.191406 C 252.378906 106.792969 252.804688 106.054688 252.804688 105.253906 L 252.804688 83.867188 C 252.804688 83.070312 252.378906 82.332031 251.6875 81.933594 L 233.183594 71.246094 C 232.839844 71.046875 232.453125 70.949219 232.066406 70.949219 C 231.683594 70.949219 231.296875 71.046875 230.953125 71.246094 "/>
</g>
</svg>
